<?xml version="1.0" standalone="no"?>
<!DOCTYPE svg PUBLIC "-//W3C//DTD SVG 20010904//EN"
 "http://www.w3.org/TR/2001/REC-SVG-20010904/DTD/svg10.dtd">
<svg version="1.0" xmlns="http://www.w3.org/2000/svg"
 width="1440.000000pt" height="1440.000000pt" viewBox="0 0 1440.000000 1440.000000"
 preserveAspectRatio="xMidYMid meet">
<metadata>
Created by potrace 1.11, written by Peter Selinger 2001-2013
</metadata>
<g transform="translate(0.000000,1440.000000) scale(0.100000,-0.100000)"
fill="#000000" stroke="none">
<path d="M0 7200 l0 -4320 7200 0 7200 0 0 4320 0 4320 -7200 0 -7200 0 0
-4320z m10595 2302 c7 -1 9 -174 9 -499 -1 -274 -2 -500 -3 -503 -1 -3 -1369
-5 -3042 -5 -2446 1 -3042 -2 -3046 -12 -3 -7 -6 -531 -7 -1165 -2 -634 -6
-1164 -9 -1178 -3 -14 -8 -43 -11 -65 -3 -22 -8 -51 -11 -65 -2 -14 -10 -50
-16 -80 -6 -30 -16 -61 -21 -67 -6 -7 -8 -13 -5 -13 10 0 -60 -164 -96 -225
-80 -136 -221 -285 -353 -372 -11 -7 -39 -26 -64 -43 -25 -16 -50 -30 -57 -30
-6 0 -13 -4 -15 -8 -8 -21 -263 -128 -353 -149 -31 -7 -50 -11 -55 -13 -3 -1
-8 -2 -12 -1 -4 0 -18 -3 -30 -8 -13 -5 -50 -12 -83 -16 -33 -4 -71 -9 -85
-11 -44 -6 -243 -6 -295 1 -85 11 -191 35 -267 60 -40 14 -80 27 -89 29 -9 2
-60 27 -115 56 -166 87 -311 203 -417 333 -18 22 -37 44 -42 51 -22 23 -75
105 -75 115 0 6 25 37 56 68 395 406 679 691 683 687 3 -3 7 -10 7 -15 1 -5 2
-10 4 -11 2 -3 5 -16 13 -53 9 -42 72 -178 96 -207 48 -59 128 -115 181 -125
102 -21 194 2 257 62 24 23 45 39 48 37 3 -3 5 2 5 11 0 8 6 22 13 29 7 7 16
22 20 33 3 11 12 38 20 60 8 22 18 60 23 85 4 25 8 756 9 1625 0 869 3 1585 7
1590 4 7 1217 10 3610 9 1981 0 3608 -1 3613 -2z m958 -3 c51 1 97 2 102 2 8
1 174 0 270 -1 89 0 150 1 153 5 3 2 13 0 23 -5 11 -7 20 -7 24 0 29 48 30 -3
30 -2202 l0 -2203 -525 1 -525 0 -2 148 c-1 82 -4 151 -7 153 -2 2 -40 -31
-84 -74 -87 -84 -162 -142 -245 -186 -60 -33 -211 -94 -250 -101 -15 -3 -35
-7 -45 -10 -117 -34 -490 -38 -572 -6 -3 1 -9 2 -13 1 -5 -1 -37 6 -70 14 -34
9 -69 18 -77 20 -29 7 -146 53 -205 80 -172 79 -381 242 -503 392 -80 99 -102
129 -102 141 0 6 -4 12 -10 12 -5 0 -10 7 -10 15 0 8 -4 15 -10 15 -5 0 -10 4
-10 9 0 4 -18 40 -39 80 -22 39 -38 71 -36 71 2 0 -7 22 -20 49 -14 27 -25 55
-25 63 0 8 -3 18 -7 22 -4 3 -8 12 -9 19 -1 7 -10 39 -20 72 -10 33 -19 65
-19 70 -1 6 -7 35 -13 65 -42 192 -49 486 -17 670 12 70 49 206 66 248 10 23
19 46 20 50 9 42 127 273 158 309 6 7 11 16 11 20 0 10 85 122 136 180 21 23
40 46 43 50 9 13 142 126 181 154 112 81 293 167 430 204 3 1 23 7 45 13 22 6
55 14 74 17 19 3 37 8 41 10 3 2 33 7 65 10 33 4 69 9 80 12 23 4 227 4 265
-1 43 -6 104 -16 140 -23 19 -4 37 -8 40 -8 25 -4 182 -61 228 -81 59 -28 184
-105 210 -130 16 -16 169 -134 174 -134 2 0 3 381 3 848 l0 847 169 2 c92 1
170 4 173 7 3 3 10 3 15 0 5 -3 51 -5 101 -5z m-4747 -1302 c3 -3 16 -2 29 3
13 5 26 6 29 2 4 -3 17 -7 29 -8 40 -3 142 -15 162 -19 11 -3 31 -7 45 -9 70
-12 182 -43 300 -81 64 -21 248 -111 268 -131 7 -8 19 -14 27 -14 7 0 15 -3
17 -7 2 -5 30 -28 62 -52 83 -62 246 -228 246 -251 0 -5 4 -10 9 -10 5 0 12
-8 15 -18 4 -10 14 -27 24 -38 36 -42 119 -206 162 -324 34 -91 76 -249 84
-315 3 -22 8 -51 11 -65 14 -64 29 -398 19 -436 -5 -21 59 -20 -1737 -14 -258
1 -470 0 -472 -2 -12 -12 -11 -136 1 -205 20 -115 70 -208 162 -300 41 -40 78
-73 84 -73 5 0 22 -8 36 -18 28 -19 102 -51 137 -58 89 -19 247 -23 325 -10
25 4 53 9 62 10 9 1 54 21 100 43 59 29 103 61 151 108 37 37 67 70 67 75 0
27 69 31 544 32 268 0 490 -2 492 -5 11 -11 -57 -187 -112 -293 -106 -202
-226 -337 -430 -482 -47 -33 -222 -121 -229 -114 -3 4 -9 2 -13 -4 -6 -8 -58
-28 -104 -40 -5 -1 -9 -3 -10 -4 -2 -1 -12 -4 -23 -6 -11 -1 -49 -10 -85 -19
-35 -9 -80 -18 -100 -21 -19 -3 -44 -8 -55 -11 -11 -3 -36 -7 -55 -9 -19 -2
-66 -7 -105 -11 -89 -9 -369 -10 -460 0 -75 8 -120 14 -120 17 0 1 -14 3 -30
5 -17 2 -51 9 -75 16 -52 15 -46 13 -90 23 -19 5 -39 11 -45 14 -5 4 -18 8
-29 9 -10 2 -33 9 -50 17 -17 7 -47 19 -66 26 -53 19 -253 120 -271 136 -8 8
-20 14 -25 14 -6 0 -19 8 -30 18 -10 9 -46 37 -78 62 -103 78 -207 188 -283
300 -54 79 -158 270 -147 270 4 0 1 6 -5 13 -6 8 -12 22 -14 33 -1 10 -6 24
-10 30 -3 6 -18 56 -31 110 -22 89 -28 118 -42 204 -23 144 -23 454 1 570 3
14 7 39 9 55 8 53 36 166 63 244 31 94 115 274 148 317 14 18 25 35 25 39 0 7
38 62 63 90 10 11 32 38 49 60 38 48 173 170 243 219 28 19 82 52 120 72 39
20 75 40 80 44 16 11 142 60 225 86 72 24 217 58 290 69 19 3 46 8 60 10 14 2
61 7 104 10 44 3 81 6 82 8 5 5 164 0 170 -6z"/>
<path d="M10385 7262 c-57 -5 -167 -35 -216 -58 -27 -13 -53 -24 -59 -24 -5 0
-10 -3 -10 -8 0 -4 -15 -15 -33 -25 -18 -10 -53 -37 -78 -60 -175 -165 -249
-379 -214 -622 13 -96 86 -247 157 -327 47 -53 169 -148 190 -148 10 0 18 -4
18 -8 0 -9 116 -52 160 -60 44 -9 243 -7 285 1 53 12 178 64 209 88 13 10 28
19 33 19 12 0 134 119 165 161 124 168 166 402 103 580 -8 20 -11 40 -8 43 4
3 1 6 -5 6 -7 0 -12 7 -12 16 0 18 -41 97 -52 102 -5 2 -8 8 -8 13 0 14 -16
32 -102 120 -43 44 -84 79 -93 79 -8 0 -15 4 -15 9 0 10 -130 71 -152 71 -8 0
-18 3 -22 8 -4 4 -11 7 -14 7 -4 1 -29 5 -57 9 -55 9 -123 13 -170 8z"/>
<path d="M6637 7503 c-3 -3 -22 -7 -43 -10 -20 -3 -66 -18 -103 -35 -188 -84
-311 -231 -325 -390 l-4 -38 77 -1 c496 -3 1095 1 1102 8 12 12 -6 76 -44 153
-21 43 -56 88 -101 133 -37 37 -72 67 -76 67 -5 0 -15 6 -22 13 -18 17 -123
67 -142 67 -8 0 -17 4 -21 9 -3 6 -13 10 -23 9 -9 0 -28 3 -42 7 -30 9 -226
16 -233 8z"/>
</g>
</svg>
