<?xml version="1.0" encoding="utf-8"?>
<!-- Generator: Adobe Illustrator 24.1.0, SVG Export Plug-In . SVG Version: 6.00 Build 0)  -->
<svg version="1.1" id="Layer_1" xmlns="http://www.w3.org/2000/svg" xmlns:xlink="http://www.w3.org/1999/xlink" x="0px" y="0px"
	 viewBox="0 0 360 216" style="enable-background:new 0 0 360 216;" xml:space="preserve">
<path d="M0,216C0,144,0,72,0,0c120,0,240,0,360,0c0,72,0,144,0,216C240,216,120,216,0,216z M84.1,50.4c0,0.5,0,0.9,0,1.3
	c0,16.9,0.1,33.8,0.1,50.6c0,8,0,16,0,24c0,2.8-0.2,5.7-1.4,8.3c-2.2,5-8.1,6.1-12.1,2.3c-1.7-1.7-2.6-3.8-3.3-6
	c-0.2-0.8-0.4-1.5-0.7-2.5c-6.3,6.4-12.4,12.7-18.6,19c5.8,9.8,16.6,16.1,28,16.4c9.2,0.2,17.3-2.6,24.6-7.9
	c5.3-3.9,8.9-9.1,10.6-15.5c1-3.9,1.4-7.8,1.4-11.8c0-17.2,0-34.3,0-51.5c0-0.5,0-0.9,0-1.5c50.9,0,101.6,0,152.4,0
	c0-8.5,0-16.9,0-25.3C204.9,50.4,144.6,50.4,84.1,50.4z M277.3,93.1c-0.4-0.3-0.6-0.5-0.8-0.6c-2.4-1.8-4.6-3.9-7.2-5.3
	c-9.4-4.9-19.3-4.7-29-1.1c-10,3.7-16.4,11.2-20.6,20.8c-3.4,7.8-3.8,15.9-2.4,24.2c1.5,8.6,5.2,16,11.6,22c6.8,6.4,15,9.8,24.4,10
	c9.1,0.2,17-2.4,23.2-9.4c0.2-0.2,0.5-0.4,1-0.9c0,2.8,0,5.3,0,7.8c8.9,0,17.6,0,26.4,0c0-36.8,0-73.4,0-110.1c-8.8,0-17.6,0-26.5,0
	C277.3,64.6,277.3,78.7,277.3,93.1z M208.6,127.8c0.5-5.8-0.4-13.5-2.3-19.3c-3.9-11.9-11.7-19.8-23.7-23.4
	c-10.1-3-20.2-2.9-30.3,0.3c-10.9,3.4-18.6,10.4-22.9,21.1c-3,7.6-3.6,15.4-2.6,23.4c0.8,6.1,2.7,11.8,6.2,16.8
	c5.4,7.8,13,12.3,21.9,14.9c8.5,2.5,17,2.3,25.6,0.7c13.5-2.5,22.4-10.3,26.7-23.3c0.1-0.4,0.2-0.8,0.4-1.2
	c-0.2-0.1-0.4-0.1-0.5-0.1c-8,0-15.9,0-23.9,0c-0.7,0-1.5,0.5-1.9,1.1c-2,2.5-4.4,4.3-7.4,5.2c-2.8,0.8-5.7,0.8-8.6,0.4
	c-7.9-1.1-13.6-8.9-11.9-16.7C171.8,127.8,190.2,127.8,208.6,127.8z"/>
<path d="M261.1,140.3c-9.3,0.1-16.9-7.5-17-16.7c-0.1-9.4,7.5-17.1,16.9-17.2c9.3-0.1,17,7.6,17.1,17
	C278.2,132.4,270.4,140.2,261.1,140.3z"/>
<path d="M183.7,112.3c-9.9,0-19.7,0-29.6,0c-0.2-5.9,5.9-11.4,13-12C175.3,99.7,183,105.2,183.7,112.3z"/>
</svg>
