<?xml version="1.0" encoding="utf-8"?>
<!-- Generator: Adobe Illustrator 24.1.0, SVG Export Plug-In . SVG Version: 6.00 Build 0)  -->
<svg version="1.1" xmlns="http://www.w3.org/2000/svg" xmlns:xlink="http://www.w3.org/1999/xlink" x="0px" y="0px"
	 viewBox="0 0 65.4 105.2" style="enable-background:new 0 0 65.4 105.2;" xml:space="preserve">
<style type="text/css">
	.st0{fill:#70FFAF;}
	.st1{fill:#7E4BDB;}
</style>
<g id="Layer_4">
</g>
<g id="Layer_3">
</g>
<g id="Layer_5">
	<g>
		<path class="st0" d="M23.5,19.9c-1.2,0.3-1.9-0.1-2.3-1c-0.1-0.3-0.3-0.7-0.3-1c-0.2-1,0.2-1.8,1.1-2.2c1.3-0.5,2.6-0.9,3.9-1.3
			c0.9-0.3,1.8,0.1,2.1,1c0.1,0.3,0.2,0.6,0.3,0.9c0.3,1.1,0,1.9-1.2,2.4c-0.1-0.1-0.1-0.3-0.1-0.4c-0.1-0.2-0.1-0.4-0.2-0.6
			c-0.2-0.5-0.6-0.7-1.1-0.5c-0.7,0.2-1.3,0.4-2,0.7c-0.5,0.2-0.7,0.6-0.6,1.2C23.2,19.2,23.3,19.5,23.5,19.9z"/>
		<path class="st0" d="M51.8,8.8c0,0.5-0.1,0.8-0.5,0.9c-0.1,0.1-0.3,0.1-0.4,0.2c-0.4,0.1-0.8,0-0.9-0.4c-0.2-0.6-0.4-1.2-0.6-1.8
			c-0.1-0.4,0.1-0.7,0.4-0.9c0.1-0.1,0.3-0.1,0.5-0.2c0.4-0.1,0.7,0,0.9,0.4C51.4,7.7,51.6,8.3,51.8,8.8z"/>
	</g>
	<g>
		<path class="st1" d="M2,62.6c0.1-0.1,0.3-0.1,0.3-0.2c0.6-1.3,1.6-2.4,2.4-3.6c0.4-0.6,0.8-1.1,1.2-1.6c-0.2-0.4-0.5-0.7-0.8-1
			c-0.8-0.8-0.8-1.1,0-1.9c1.1-1,2.2-1.9,3.3-2.8c0.6-0.5,1.4-0.7,2.1-0.6c1.1,0.1,2.2,0.2,3.3,0.3c1,0.1,2.1,0.2,3.1,0.3
			c0.3-0.4,0.5-0.8,0.7-1.2c1.2-2,2.4-4,3.5-6.1c1-1.7,1.4-3.6,1.6-5.6c0-0.5,0.1-1,0.1-1.5c0-0.2,0-0.3,0-0.5
			c-0.3,0-0.5-0.1-0.8-0.1c-2.2-0.2-4.1-1-5.7-2.5c-1.2-1.1-2.2-2.4-2.7-3.9c-0.7-2.2-1.5-4.5-2.2-6.8c-0.8-2.5-0.4-4.9,0.9-7.2
			c1.3-2.3,3.2-4.1,5.7-5c2.3-0.8,4.7-1.6,7-2.3c5-1.6,9.9-3.2,14.9-4.8c1.5-0.5,3.1-0.7,4.7-0.7c4.2,0.1,7.9,2.9,9.2,6.9
			c0.6,1.7,1.1,3.4,1.7,5.1c0.4,1.3,0.7,2.7,0.6,4.1c-0.1,0.9-0.2,1.6-0.9,2.3c-0.4,0.4-0.7,0.9-1.1,1.4c-0.7-0.5-1.3-1-1.9-1.5
			c-0.6,0.3-1,0.7-1.4,1.1c-0.9,0.7-0.8,0.8-2,0.4c-0.5-0.2-1-0.3-1.5-0.5c-0.3-0.1-0.6,0-0.9,0.2c-0.4,0.4-0.9,0.8-1.3,1.3
			c-0.5,0.6-1.1,0.7-1.8,0.4c-0.6-0.3-1.3-0.5-1.9-0.7c-0.2-0.1-0.4-0.1-0.6-0.2c-0.8,0.7-1.2,1.7-2.1,2.4c-0.3-0.2-0.5-0.5-0.7-0.7
			c-0.3-0.3-0.5-0.6-0.8-0.8c-0.2-0.2-0.5-0.3-0.8-0.3c-0.6,0.1-1.2,0.2-1.9,0.4c-0.1,0.3-0.2,0.6-0.2,0.9c-0.6,0-0.9-0.7-1.5-0.6
			c0,0.7,0.4,2.1,0.9,3c0.3,0,0.6-0.2,0.8-0.4c0.3-0.1,0.6-0.3,0.8-0.5c0.3-0.1,0.6-0.3,0.9-0.5c0.4,0.4,0.8,0.8,1.1,1.2
			c0.3,0.4,0.7,0.6,1.3,0.6c0.5,0,1,0,1.4,0.1c0.5,0.1,0.9-0.1,1.2-0.4c0.3-0.3,0.7-0.6,1.1-1c0.4,0.4,0.4,0.9,0.6,1.3
			c0.3,0.1,0.4-0.1,0.5-0.2c0.8-0.6,1.5-1.2,2.3-1.9c0.2-0.2,0.5-0.4,0.8-0.6c0.5,1,0.7,2.1,1.1,3.1c-0.3,0.4-0.6,0.4-1,0.5
			c-4.2,1.4-8.4,2.7-12.6,4.1c-1.6,0.5-3.2,1-4.7,1.5c-0.2,0.1-0.4,0.2-0.7,0.2c0,0.1-0.1,0.2-0.1,0.4c0.1,1.8,0.2,3.6,0.6,5.3
			c0.2,0.7,0.4,1.4,0.9,2c0.6,0.6,1.1,1.3,1.6,1.9c0.3,0.3,0.6,0.5,1,0.5c0.6,0,1.1-0.1,1.8,0.1c0,0.2,0,0.4-0.1,0.6
			c-0.1,0.5-0.3,0.9-0.4,1.4c-0.1,0.3-0.1,0.6,0.1,0.9c0.4,0.5,0.8,1,1.3,1.4c0.3,0.3,0.6,0.4,1,0.4c0.6,0,1.3,0,2,0
			c0,0.3,0.1,0.5,0.1,0.7c0,0.6,0,1.2,0,1.7c0,0.5,0.1,0.9,0.5,1.3c0.1,0.1,0.3,0.3,0.4,0.4c0.3,0.3,0.6,0.4,1,0.4
			c0.5,0,1,0,1.6,0.1c0,0.2,0.1,0.4,0.1,0.6c0,0.5,0,1,0,1.4c0,0.7,0.6,1.4,1.4,1.4c0.7,0,1.3,0,2,0c0.2,0,0.4,0,0.7,0.1
			c-0.1,0.7-0.3,1.2-0.5,1.8c-0.4,1.1-0.4,1.1,0.4,1.9c0.1,0.2,0.3,0.3,0.5,0.5c0.5-0.1,1.1-0.3,1.6-0.4c0.2,0.2,0.1,0.3,0.1,0.5
			c-0.1,0.4-0.3,0.8-0.5,1.2c0.2,0.6,0.7,1,1.1,1.4c0.2,0.2,0.4,0.2,0.6,0.1c0.7-0.2,1.2-0.6,1.7-1c1.3-1.1,2.5-2.3,3.5-3.6
			c1.3-1.6,2.7-3.2,3.9-4.9c1.5-1.9,2.9-3.9,4.4-5.8c0.2-0.3,0.4-0.6,0.8-0.8c-0.1,0.5-0.1,1-0.2,1.5c-1.7,7.8-4.3,15.3-8.2,22.3
			c-1.7,3-3.6,5.8-5.9,8.4c-2.6,3-5.6,5.6-9.1,7.5c-0.4,0.2-0.8,0.4-1.2,0.6c-0.4,0.2-0.6,0.5-0.6,0.9c0,0.7,0,1.3,0,2
			c0,1.3,0,2.6,0.1,4c0.1,0.1,0.2,0.2,0.4,0.3c0.5,0.4,0.7,0.8,0.7,1.4c0,1,0,2,0,3.1c0,0.8-0.3,1.4-1.1,1.8c-0.1,0-0.1,0.1-0.1,0.1
			c-2.9,0-5.8,0-8.6,0c-0.2-0.1-0.3-0.2-0.5-0.3c-0.4-0.3-0.7-0.7-0.7-1.3c0-1.2,0-2.4,0-3.6c0-0.8,0.6-1.4,1.4-1.5
			c0.2,0,0.4,0,0.6,0c1.2,0,2.3,0,3.5,0c0.2,0,0.4,0,0.6-0.1c0.1-0.1,0.1-0.2,0.1-0.2c0-1.4,0-2.8,0-4.2c0-0.1-0.1-0.3-0.2-0.4
			c-0.1,0-0.2,0-0.2,0c-2.6,0.7-5.2,1.1-7.9,1.2c-0.1,0-0.3,0.1-0.5,0.1c0,0.5,0,0.9,0,1.4c0.8,0.5,1,1.2,1,2.1c0,0.8,0,1.5,0,2.3
			c0,1.6-0.6,2.1-2.1,2.1c-2.2,0-4.5,0-6.7,0c-0.4,0-0.8,0-1.1,0.1c0,0,0,0,0,0c-0.2-0.2-0.4-0.4-0.6-0.6c-0.3-0.3-0.5-0.6-0.5-1
			c0-1.2,0-2.4,0-3.5c0-0.9,0.7-1.5,1.5-1.6c0.2,0,0.4,0,0.7,0c1.1,0,2.1,0,3.2,0c0.2,0,0.5,0,0.8-0.1c0-0.7,0.1-1.3,0-1.9
			c-0.2-0.1-0.3-0.1-0.5-0.2c-3-1.1-5.2-3.1-6.6-6c-1-2-1.5-4.1-1.8-6.3c-0.3-2-0.3-3.9-0.3-5.9c0-2.2,0.3-4.4,0.6-6.6
			c0.3-1.8,0.6-3.6,0.9-5.4c0-0.2,0-0.4,0-0.6c-1.3-0.3-2.6-0.4-3.9-0.6c-0.4-0.1-0.7,0.1-1,0.5c-0.6,0.9-1.2,1.7-1.9,2.6
			c-0.5,0.7-0.8,1.4-1.1,2.1c-0.3,1-0.6,2-0.9,3c-0.1,0.2-0.1,0.4-0.3,0.6c-0.1-0.1-0.2-0.2-0.2-0.3c-0.9-1.7-1.9-3.4-2.8-5.1
			C2.3,63.2,2.2,63,2,63C2,62.9,2,62.7,2,62.6z M23.5,19.9c-0.1-0.4-0.3-0.7-0.4-1c-0.1-0.5,0.1-1,0.6-1.2c0.7-0.3,1.3-0.5,2-0.7
			c0.5-0.1,0.9,0.1,1.1,0.5c0.1,0.2,0.1,0.4,0.2,0.6c0,0.1,0.1,0.3,0.1,0.4c1.2-0.6,1.5-1.3,1.2-2.4c-0.1-0.3-0.2-0.6-0.3-0.9
			c-0.4-0.8-1.2-1.3-2.1-1c-1.3,0.4-2.6,0.8-3.9,1.3c-0.9,0.3-1.3,1.2-1.1,2.2c0.1,0.3,0.2,0.7,0.3,1C21.6,19.8,22.3,20.1,23.5,19.9
			z M16.2,54c-1.3-0.1-2.5-0.2-3.6-0.3c-0.4,0-0.7,0.1-1,0.4c-0.6,0.5-1.1,0.9-1.7,1.4c-0.1,0.1-0.1,0.2-0.2,0.3
			c1,0.1,2,0.3,2.9,0.4c0.9,0.1,1.9,0.4,2.9,0.3C15.8,55.7,16,54.9,16.2,54z M51.8,8.8c-0.2-0.5-0.4-1.2-0.7-1.8
			c-0.1-0.3-0.5-0.4-0.9-0.4c-0.2,0-0.3,0.1-0.5,0.2c-0.3,0.2-0.5,0.5-0.4,0.9c0.2,0.6,0.4,1.2,0.6,1.8c0.2,0.4,0.5,0.5,0.9,0.4
			c0.2,0,0.3-0.1,0.4-0.2C51.6,9.6,51.8,9.4,51.8,8.8z"/>
		<path class="st1" d="M17,100.5c-0.3,0.2-0.6,0.5-0.9,0.8c-0.2-0.2-0.1-0.5-0.1-0.8C16.3,100.4,16.7,100.3,17,100.5
			C17,100.5,17,100.5,17,100.5z"/>
	</g>
</g>
</svg>
