<?xml version="1.0" encoding="utf-8"?>
<!-- Generator: Adobe Illustrator 24.1.0, SVG Export Plug-In . SVG Version: 6.00 Build 0)  -->
<svg version="1.1" id="Layer_1" xmlns="http://www.w3.org/2000/svg" xmlns:xlink="http://www.w3.org/1999/xlink" x="0px" y="0px"
	 viewBox="0 0 250 214.6" enable-background="new 0 0 250 214.6" xml:space="preserve">
<g id="_x31_">
</g>
<g id="Designed_by_Vecteezy">
	<path fill="none" d="M165.4,175.9c-4.1,2.3-9.1,4.3-14.6,6.1c5.4,0.5,10.4,1.2,15.1,2C165.9,181.1,165.9,178,165.4,175.9z"/>
	<path fill="#393939" d="M214.3,134.1c-0.3,0.7-0.6,1.5-1,2.2C213.6,135.5,214,134.8,214.3,134.1z"/>
	<path fill="#393939" d="M205.4,122c0.3,0,0.6,0,0.8,0C205.9,122,205.6,122,205.4,122z"/>
	<path fill="#393939" d="M211.7,122.4c0.2,0,0.3,0.1,0.5,0.1C212,122.5,211.8,122.5,211.7,122.4z"/>
	<path fill="#393939" d="M213.1,122.9c0.1,0,0.2,0.1,0.2,0.1C213.3,122.9,213.2,122.9,213.1,122.9z"/>
	<path fill="#393939" d="M214.1,123.3c0.1,0.1,0.2,0.1,0.3,0.2C214.3,123.4,214.2,123.3,214.1,123.3z"/>
	<path fill="#393939" d="M207,122c0.2,0,0.5,0,0.8,0C207.5,122,207.2,122,207,122z"/>
	<path fill="#393939" d="M208.9,122c0.2,0,0.5,0,0.7,0.1C209.4,122.1,209.1,122.1,208.9,122z"/>
	<path fill="#393939" d="M210.4,122.2c0.2,0,0.4,0.1,0.6,0.1C210.8,122.3,210.6,122.2,210.4,122.2z"/>
	<path fill="#393939" d="M216.3,126c0,0.1,0,0.2,0,0.2C216.3,126.1,216.3,126,216.3,126z"/>
	<path fill="#393939" d="M203.7,122.1c-3.7,0.3-8,1.1-12.4,2.6c5.1,5.5,10.8,13.1,14.4,22.4c3-3.2,5.6-6.8,7.6-10.8
		C212.1,131.8,209.5,125.9,203.7,122.1z"/>
	<path fill="#393939" d="M215.7,124.5C215.7,124.6,215.7,124.6,215.7,124.5C215.7,124.6,215.7,124.6,215.7,124.5z"/>
	<path fill="#393939" d="M216.1,125.2c0,0.1,0.1,0.2,0.1,0.2C216.1,125.3,216.1,125.3,216.1,125.2z"/>
	<path fill="#393939" d="M214.9,123.8c0.1,0.1,0.2,0.1,0.2,0.2C215,123.9,214.9,123.8,214.9,123.8z"/>
	<path fill="#393939" d="M205.7,147c-1.3,1.4-2.7,2.7-4.2,4C203,149.8,204.4,148.4,205.7,147z"/>
	<path fill="#393939" d="M183.2,127.8c0.9-0.4,1.8-0.8,2.7-1.2C184.9,127,184.1,127.4,183.2,127.8z"/>
	<path fill="#393939" d="M201.5,151.1c-1.4,1.2-2.9,2.4-4.4,3.5C198.6,153.5,200,152.4,201.5,151.1z"/>
	<path fill="#393939" d="M190.1,159.3c-1.5,0.9-2.9,1.7-4.3,2.4C187.1,161,188.6,160.2,190.1,159.3z"/>
	<path fill="#393939" d="M215.8,129.5c-0.1,0.6-0.3,1.2-0.5,1.8C215.4,130.6,215.6,130.1,215.8,129.5z"/>
	<path fill="#393939" d="M215.1,131.8c-0.2,0.7-0.5,1.4-0.8,2.2C214.6,133.3,214.8,132.5,215.1,131.8z"/>
	<path fill="#393939" d="M185.9,126.6c1.8-0.8,3.6-1.4,5.4-2C189.5,125.2,187.7,125.9,185.9,126.6z"/>
	<path fill="#393939" d="M179,158.2c-0.7,3-1.5,5.7-2.6,7.8c0,0,0,0,0,0c2.4-1,5.6-2.4,9.2-4.3c-1.4,0.7-2.7,1.4-4,2
		C180.8,162.1,179.9,160.2,179,158.2z"/>
	<path fill="#393939" d="M180.9,129.6c0.1,4.4,0.1,8.7,0,12.7c3.5,4.9,6.9,10.6,9.2,17c2.3-1.4,4.7-2.9,7-4.6
		C194,148.1,188,136.4,180.9,129.6z"/>
	<path fill="#393939" d="M203.7,122.1c0.3,0,0.6,0,0.8-0.1C204.2,122,204,122.1,203.7,122.1z"/>
	<path fill="#393939" d="M183.1,127.9c-0.8,0.4-1.5,0.7-2.3,1.1v0C181.6,128.6,182.3,128.2,183.1,127.9z"/>
	<path fill="#A5A5A5" d="M216.3,126c0-0.2-0.1-0.4-0.1-0.5c0-0.1-0.1-0.2-0.1-0.2c-0.1-0.2-0.2-0.4-0.3-0.6c0,0,0-0.1-0.1-0.1
		c-0.2-0.2-0.4-0.4-0.6-0.6c-0.1-0.1-0.1-0.1-0.2-0.2c-0.2-0.1-0.3-0.2-0.5-0.3c-0.1-0.1-0.2-0.1-0.3-0.2c-0.2-0.1-0.4-0.2-0.7-0.3
		c-0.1,0-0.2-0.1-0.2-0.1c-0.3-0.1-0.6-0.2-1-0.3c-0.1,0-0.3-0.1-0.5-0.1c-0.2-0.1-0.5-0.1-0.7-0.2c-0.2,0-0.4-0.1-0.6-0.1
		c-0.2,0-0.5-0.1-0.8-0.1c-0.2,0-0.5-0.1-0.7-0.1c-0.4,0-0.8-0.1-1.2-0.1c-0.2,0-0.5,0-0.8,0c-0.3,0-0.5,0-0.8,0c-0.3,0-0.5,0-0.8,0
		c-0.3,0-0.6,0-0.9,0c-0.3,0-0.5,0-0.8,0.1l0,0l0,0c5.8,3.8,8.4,9.8,9.6,14.1l0,0c0,0,0,0,0,0c0.3-0.7,0.7-1.4,1-2.2
		c0,0,0-0.1,0-0.1c0.3-0.7,0.6-1.4,0.8-2.2c0.1-0.2,0.1-0.4,0.2-0.6c0.2-0.6,0.4-1.2,0.5-1.8c0.2-0.8,0.4-1.6,0.5-2.5
		c0.1-0.3,0.1-0.6,0-0.8C216.3,126.1,216.3,126,216.3,126z"/>
	<path fill="#A5A5A5" d="M191.3,124.6L191.3,124.6c-1.8,0.6-3.6,1.2-5.4,2c0,0,0,0,0,0c-0.9,0.4-1.8,0.8-2.7,1.2c0,0,0,0-0.1,0
		c-0.8,0.4-1.5,0.8-2.3,1.1c0,0.2,0,0.4,0,0.6c7.1,6.8,13.2,18.4,16.2,25l0,0l0,0c1.5-1.1,3-2.3,4.4-3.5c0,0,0.1,0,0.1-0.1
		c1.4-1.3,2.8-2.6,4.2-4l0,0l0,0C202.1,137.8,196.4,130.1,191.3,124.6L191.3,124.6z"/>
	<path fill="#A5A5A5" d="M179,158.2c1,1.9,1.8,3.8,2.6,5.6c1.3-0.6,2.6-1.3,4-2c0.1,0,0.1-0.1,0.2-0.1c1.4-0.7,2.9-1.5,4.3-2.4
		c0,0,0,0,0,0l0,0c-2.3-6.3-5.7-12.1-9.2-17C180.6,148.3,180,153.7,179,158.2z"/>
	<path fill="#191919" d="M181,62c-6.2-6.7-4.8,7.2-8.3,12.2c-0.1,0.1-0.1,0.2-0.2,0.3c1.5,4.8,2.9,10.6,4.1,16.7
		C182.2,86,186.1,67.6,181,62z"/>
	<path fill="#191919" d="M54,98.3c-1.4-1.2-2.9-2.2-4.2-2.9C44.5,92.4,39.7,79.3,37,88c-2.4,7.8,11.4,25,18.5,24.7
		c0-0.2-0.1-0.5-0.1-0.7C54.7,107.1,54.2,102.6,54,98.3z"/>
	<path fill="#191919" d="M86.1,204.1c6.5,2,1.2-7.7-0.2-13.8c-2.6-0.3-4.6-0.8-6-1.4c-2.4-1-4.4-2.6-6.3-4.8c0.1,0.5,0.3,1,0.5,1.6
		C75.9,191.4,80.2,202.3,86.1,204.1z"/>
	<path fill="#191919" d="M165.4,175.9c0.5,2.1,0.5,5.2,0.5,8.1c0.1,5.1,0.3,9.6,4.1,6.8c1.5-1.1,2.6-3,3.4-5.3
		c2.1-5.8,2-14,1.9-17.8C173.3,170.8,169.8,173.5,165.4,175.9z"/>
	<path fill="#393939" d="M72.1,48.4c-4.2-2.3-13.9-7-15.3-3.4c-1.2,3.1,1.7,11,3.7,16C63.4,56,67.2,51.9,72.1,48.4z"/>
	<path fill="#393939" d="M158.9,52.1c1.3-4.8,3.9-15.1,2-18.5c-2.4-4.4-16.5,6.8-16.5,6.8l0.1,0.1C150.2,43.7,154.9,47.8,158.9,52.1
		z"/>
	<path fill="#878787" d="M179,158.2c1-4.5,1.6-10,1.9-15.9c0.2-4,0.2-8.3,0-12.7c0-0.2,0-0.4,0-0.6v0c-0.4-12.5-2-26-4.3-37.8
		c-1.2-6.2-2.6-11.9-4.1-16.7c-1.8-5.8-3.8-10.5-5.9-13.2c-0.7-0.9-1.5-1.9-2.2-2.9c1.8-6.2,7.4-27.1,0.8-31.6
		c-7.8-5.3-27.1,10.5-27.1,10.5l0.3,0.3c-9.4-3.6-21.2-4.7-36.5-1.3c-9.2,2.1-17,4.8-23.4,8.2c-5.2-2.9-20.8-10.9-26.6-5.7
		c-5.8,5.3,2.1,24.5,4.9,30.8C54.1,77.5,53.3,87,54,98.3c0.3,4.3,0.7,8.8,1.4,13.6c0,0.2,0.1,0.5,0.1,0.7
		c5.5,38.3,9.3,61.3,18.1,71.4c1.8,2.1,3.9,3.7,6.3,4.8c1.4,0.6,3.5,1.1,6,1.4c14.1,1.7,43.2-1.1,64.9-8.2
		c5.4-1.8,10.4-3.8,14.6-6.1c4.4-2.4,7.9-5.2,9.9-8.2c0.4-0.5,0.7-1.1,1-1.6c0,0,0,0,0,0C177.5,163.9,178.3,161.3,179,158.2z
		 M144.4,40.4c0,0,14.1-11.2,16.5-6.8c1.8,3.3-0.7,13.7-2,18.5c-4-4.3-8.7-8.4-14.4-11.5L144.4,40.4z M97.3,49.2
		c6.8,3.4,9.4,8.7,9.2,13.1c5.2-3.1,13.2-2.7,14.5-0.5c-1.4-4.3,0-10.4,6.3-15.4c9.2-7.2,21.1-2.2,29.7,12.3
		c8.5,14.5-5,17.5-13.1,17.8c-8.1,0.2-11.1-7.3-17.7-9.3c-2.4-0.7-4.2-2.7-5.1-5.2c1.1,2.4-1.6,6.5-5.8,8.1l0.6,2.8
		c2.1-0.5,4.4-1,6.8-1.7c0,0-0.6,6.6-6.3,7.4c-5.7,0.8-8.4-1.5-9.5-4c0,0,2.8-0.3,6.9-1.2l-0.5-2.7c-3.3,0.5-7.7-0.4-9.4-2.4
		c-0.4,0.4-0.9,0.8-1.4,1c-6.1,3.2-7.5,11.2-15.5,12.5s-21.9,0.9-16.3-14.9C76.2,51.1,86.9,44,97.3,49.2z M56.8,45
		c1.4-3.7,11.1,1.1,15.3,3.4C67.2,51.9,63.4,56,60.5,61C58.4,56,55.6,48.1,56.8,45z M84.9,172.6c-19.3-13.3-31.1-62.9-13.2-78.8
		c12.9-11.5,72.8-19.4,85.8-7.8c13,11.6,14.9,49.3,7.1,68.8C156.8,174.3,104.2,185.9,84.9,172.6z"/>
	<path fill="#A5A5A5" d="M157.5,86c-13-11.6-72.8-3.8-85.8,7.8c-17.9,15.9-6.1,65.5,13.2,78.8c19.3,13.3,71.9,1.7,79.7-17.8
		C172.3,135.3,170.4,97.6,157.5,86z"/>
	<path fill="#393939" d="M70.5,66.9c-5.6,15.8,8.2,16.3,16.3,14.9s9.5-9.3,15.5-12.5c0.5-0.3,1-0.7,1.4-1c-0.9-1.1-1.1-2.4,0.3-4
		c0.7-0.8,1.5-1.5,2.4-2c0.2-4.4-2.4-9.7-9.2-13.1C86.9,44,76.2,51.1,70.5,66.9z M81.4,63.7c0.1-0.2,2.8-5.5,7.7-6.4
		c2.9-0.5,5.9,0.6,8.8,3.3c0.9,0.8,0.9,2.2,0.1,3.1c-0.8,0.9-2.2,0.9-3.1,0.1c-1.8-1.7-3.6-2.5-5.1-2.2c-2.3,0.4-4.1,3.1-4.5,4
		c-0.4,0.8-1.2,1.2-1.9,1.2c-0.3,0-0.7-0.1-1-0.2C81.3,66,80.8,64.7,81.4,63.7z"/>
	<path fill="#393939" d="M121.1,62c0.9,2.5,2.7,4.4,5.1,5.2c6.6,2,9.5,9.5,17.6,9.3s21.7-3.3,13.1-17.8
		c-8.5-14.5-20.5-19.4-29.7-12.3c-6.3,4.9-7.7,11-6.3,15.3c0,0,0,0,0,0C121.1,61.9,121.1,61.9,121.1,62z M128.1,57.4
		c0.1-0.2,2.8-5.5,7.7-6.4c2.9-0.5,5.9,0.6,8.8,3.3c0.9,0.8,0.9,2.2,0.1,3.1c-0.8,0.9-2.2,0.9-3.1,0.1c-1.8-1.7-3.5-2.5-5.1-2.2
		c-2.3,0.4-4.1,3.1-4.5,4c-0.4,0.8-1.1,1.2-1.9,1.2c-0.3,0-0.6-0.1-1-0.2C128,59.8,127.6,58.5,128.1,57.4z"/>
	<path fill="#191919" d="M104.1,64.3c-1.3,1.6-1.2,2.9-0.3,4c1.7,1.9,6.1,2.9,9.4,2.4l0.5,2.7c-4.1,0.8-6.9,1.2-6.9,1.2
		c1.1,2.5,3.8,4.9,9.5,4c5.7-0.8,6.3-7.4,6.3-7.4c-2.4,0.7-4.7,1.3-6.8,1.7l-0.6-2.8c4.2-1.6,6.9-5.7,5.8-8.1c0,0,0-0.1,0-0.1
		c0,0,0,0,0,0c-1.3-2.1-9.4-2.6-14.5,0.5C105.6,62.8,104.8,63.5,104.1,64.3z"/>
	<path fill="#191919" d="M129.1,60.3c0.3,0.2,0.6,0.2,1,0.2c0.8,0,1.6-0.5,1.9-1.2c0.4-0.9,2.2-3.6,4.5-4c1.5-0.2,3.2,0.5,5.1,2.2
		c0.9,0.8,2.2,0.8,3.1-0.1c0.8-0.9,0.8-2.2-0.1-3.1c-2.9-2.7-5.9-3.8-8.8-3.3c-4.9,0.9-7.6,6.2-7.7,6.4
		C127.6,58.5,128,59.8,129.1,60.3z"/>
	<path fill="#191919" d="M82.3,66.6c0.3,0.2,0.6,0.2,1,0.2c0.8,0,1.6-0.4,1.9-1.2c0.4-0.9,2.2-3.6,4.5-4c1.5-0.3,3.2,0.5,5.1,2.2
		c0.9,0.8,2.2,0.8,3.1-0.1c0.8-0.9,0.8-2.2-0.1-3.1c-2.9-2.7-5.9-3.8-8.8-3.3c-4.9,0.9-7.6,6.2-7.7,6.4C80.8,64.7,81.3,66,82.3,66.6
		z"/>
</g>
</svg>
